<mxfile host="app.diagrams.net" modified="2024-07-20T22:29:04.526Z" agent="Mozilla/5.0 (Windows NT 10.0; Win64; x64; rv:128.0) Gecko/20100101 Firefox/128.0" etag="F3HNJ_k68IcUE1UfC6tK" version="24.7.0" type="github">
  <diagram name="PÃ¡gina-1" id="rhS1fLtW_xt7YQzLrNhj">
    <mxGraphModel dx="2783" dy="2213" grid="1" gridSize="10" guides="1" tooltips="1" connect="1" arrows="1" fold="1" page="1" pageScale="1" pageWidth="827" pageHeight="1169" math="0" shadow="0">
      <root>
        <mxCell id="0" />
        <mxCell id="1" parent="0" />
        <mxCell id="w6lKKFBIhaXtklg_7PCL-269" style="edgeStyle=orthogonalEdgeStyle;rounded=0;orthogonalLoop=1;jettySize=auto;html=1;exitX=0;exitY=0;exitDx=0;exitDy=0;endArrow=oval;endFill=1;" parent="1" edge="1">
          <mxGeometry relative="1" as="geometry">
            <mxPoint x="120" y="530.9622641509434" as="targetPoint" />
            <mxPoint x="150" y="531" as="sourcePoint" />
          </mxGeometry>
        </mxCell>
        <mxCell id="w6lKKFBIhaXtklg_7PCL-270" style="edgeStyle=orthogonalEdgeStyle;rounded=0;orthogonalLoop=1;jettySize=auto;html=1;exitX=0;exitY=0.5;exitDx=0;exitDy=0;endArrow=oval;endFill=0;" parent="1" source="w6lKKFBIhaXtklg_7PCL-1" edge="1">
          <mxGeometry relative="1" as="geometry">
            <mxPoint x="120" y="549.9622641509434" as="targetPoint" />
          </mxGeometry>
        </mxCell>
        <mxCell id="w6lKKFBIhaXtklg_7PCL-271" style="edgeStyle=orthogonalEdgeStyle;rounded=0;orthogonalLoop=1;jettySize=auto;html=1;exitX=0;exitY=1;exitDx=0;exitDy=0;endArrow=oval;endFill=0;" parent="1" edge="1">
          <mxGeometry relative="1" as="geometry">
            <mxPoint x="120" y="568.9622641509434" as="targetPoint" />
            <mxPoint x="150" y="569" as="sourcePoint" />
          </mxGeometry>
        </mxCell>
        <mxCell id="w6lKKFBIhaXtklg_7PCL-1" value="&lt;div&gt;Estado&lt;/div&gt;" style="whiteSpace=wrap;html=1;align=center;strokeColor=none;fillColor=#99FF99;" parent="1" vertex="1">
          <mxGeometry x="150" y="530" width="100" height="40" as="geometry" />
        </mxCell>
        <mxCell id="w6lKKFBIhaXtklg_7PCL-32" style="edgeStyle=orthogonalEdgeStyle;rounded=0;orthogonalLoop=1;jettySize=auto;html=1;exitX=0.5;exitY=0;exitDx=0;exitDy=0;entryX=0.5;entryY=1;entryDx=0;entryDy=0;endArrow=none;endFill=0;" parent="1" source="w6lKKFBIhaXtklg_7PCL-2" target="w6lKKFBIhaXtklg_7PCL-15" edge="1">
          <mxGeometry relative="1" as="geometry">
            <mxPoint x="380" y="370" as="targetPoint" />
          </mxGeometry>
        </mxCell>
        <mxCell id="w6lKKFBIhaXtklg_7PCL-275" style="edgeStyle=orthogonalEdgeStyle;rounded=0;orthogonalLoop=1;jettySize=auto;html=1;exitX=0;exitY=0.25;exitDx=0;exitDy=0;endArrow=oval;endFill=1;" parent="1" source="w6lKKFBIhaXtklg_7PCL-2" edge="1">
          <mxGeometry relative="1" as="geometry">
            <mxPoint x="290" y="429.8888888888887" as="targetPoint" />
          </mxGeometry>
        </mxCell>
        <mxCell id="w6lKKFBIhaXtklg_7PCL-276" style="edgeStyle=orthogonalEdgeStyle;rounded=0;orthogonalLoop=1;jettySize=auto;html=1;exitX=0;exitY=0.75;exitDx=0;exitDy=0;endArrow=oval;endFill=0;" parent="1" source="w6lKKFBIhaXtklg_7PCL-2" edge="1">
          <mxGeometry relative="1" as="geometry">
            <mxPoint x="290" y="449.8888888888887" as="targetPoint" />
          </mxGeometry>
        </mxCell>
        <mxCell id="w6lKKFBIhaXtklg_7PCL-2" value="Cidade" style="whiteSpace=wrap;html=1;align=center;strokeColor=none;fillColor=#99FF99;" parent="1" vertex="1">
          <mxGeometry x="330" y="420" width="100" height="40" as="geometry" />
        </mxCell>
        <mxCell id="w6lKKFBIhaXtklg_7PCL-3" value="Funcionario" style="whiteSpace=wrap;html=1;align=center;strokeColor=none;fillColor=#99FF99;" parent="1" vertex="1">
          <mxGeometry x="150" y="230" width="100" height="40" as="geometry" />
        </mxCell>
        <mxCell id="w6lKKFBIhaXtklg_7PCL-41" style="edgeStyle=orthogonalEdgeStyle;rounded=0;orthogonalLoop=1;jettySize=auto;html=1;exitX=0;exitY=0.5;exitDx=0;exitDy=0;entryX=1;entryY=0.5;entryDx=0;entryDy=0;endArrow=none;endFill=0;" parent="1" source="w6lKKFBIhaXtklg_7PCL-4" target="w6lKKFBIhaXtklg_7PCL-17" edge="1">
          <mxGeometry relative="1" as="geometry" />
        </mxCell>
        <mxCell id="w6lKKFBIhaXtklg_7PCL-4" value="Clientes" style="whiteSpace=wrap;html=1;align=center;strokeColor=none;fillColor=#99FF99;" parent="1" vertex="1">
          <mxGeometry x="690" y="420" width="100" height="40" as="geometry" />
        </mxCell>
        <mxCell id="w6lKKFBIhaXtklg_7PCL-109" style="edgeStyle=orthogonalEdgeStyle;rounded=0;orthogonalLoop=1;jettySize=auto;html=1;exitX=0.25;exitY=0;exitDx=0;exitDy=0;endArrow=oval;endFill=0;" parent="1" source="w6lKKFBIhaXtklg_7PCL-5" edge="1">
          <mxGeometry relative="1" as="geometry">
            <mxPoint x="200" y="-40" as="targetPoint" />
            <Array as="points">
              <mxPoint x="175" y="-40" />
              <mxPoint x="200" y="-40" />
            </Array>
          </mxGeometry>
        </mxCell>
        <mxCell id="w6lKKFBIhaXtklg_7PCL-5" value="Restaurantes" style="whiteSpace=wrap;html=1;align=center;strokeColor=none;fillColor=#99FF99;" parent="1" vertex="1">
          <mxGeometry x="150" y="30" width="100" height="40" as="geometry" />
        </mxCell>
        <mxCell id="w6lKKFBIhaXtklg_7PCL-36" style="edgeStyle=orthogonalEdgeStyle;rounded=0;orthogonalLoop=1;jettySize=auto;html=1;exitX=0.5;exitY=0;exitDx=0;exitDy=0;entryX=0.5;entryY=1;entryDx=0;entryDy=0;endArrow=none;endFill=0;" parent="1" source="w6lKKFBIhaXtklg_7PCL-6" target="w6lKKFBIhaXtklg_7PCL-11" edge="1">
          <mxGeometry relative="1" as="geometry" />
        </mxCell>
        <mxCell id="w6lKKFBIhaXtklg_7PCL-6" value="Entregadores" style="whiteSpace=wrap;html=1;align=center;strokeColor=none;fillColor=#99FF99;" parent="1" vertex="1">
          <mxGeometry x="510" y="230" width="100" height="40" as="geometry" />
        </mxCell>
        <mxCell id="vipsW1VBh6MyxsaxampE-4" style="edgeStyle=orthogonalEdgeStyle;rounded=0;orthogonalLoop=1;jettySize=auto;html=1;exitX=0.5;exitY=0;exitDx=0;exitDy=0;entryX=0.5;entryY=1;entryDx=0;entryDy=0;endArrow=none;endFill=0;" edge="1" parent="1" source="w6lKKFBIhaXtklg_7PCL-7" target="vipsW1VBh6MyxsaxampE-2">
          <mxGeometry relative="1" as="geometry" />
        </mxCell>
        <mxCell id="w6lKKFBIhaXtklg_7PCL-7" value="Produtos" style="whiteSpace=wrap;html=1;align=center;strokeColor=none;fillColor=#99FF99;" parent="1" vertex="1">
          <mxGeometry x="690" y="130" width="100" height="40" as="geometry" />
        </mxCell>
        <mxCell id="vipsW1VBh6MyxsaxampE-3" style="edgeStyle=orthogonalEdgeStyle;rounded=0;orthogonalLoop=1;jettySize=auto;html=1;exitX=1;exitY=0.5;exitDx=0;exitDy=0;entryX=0;entryY=0.5;entryDx=0;entryDy=0;endArrow=none;endFill=0;" edge="1" parent="1" source="w6lKKFBIhaXtklg_7PCL-8" target="vipsW1VBh6MyxsaxampE-2">
          <mxGeometry relative="1" as="geometry" />
        </mxCell>
        <mxCell id="w6lKKFBIhaXtklg_7PCL-8" value="Pedidos" style="whiteSpace=wrap;html=1;align=center;strokeColor=none;fillColor=#99FF99;" parent="1" vertex="1">
          <mxGeometry x="510" y="30" width="100" height="40" as="geometry" />
        </mxCell>
        <mxCell id="w6lKKFBIhaXtklg_7PCL-9" value="Recebe" style="shape=rhombus;perimeter=rhombusPerimeter;whiteSpace=wrap;html=1;align=center;strokeColor=none;fillColor=#99CCFF;" parent="1" vertex="1">
          <mxGeometry x="320" y="20" width="120" height="60" as="geometry" />
        </mxCell>
        <mxCell id="w6lKKFBIhaXtklg_7PCL-37" style="edgeStyle=orthogonalEdgeStyle;rounded=0;orthogonalLoop=1;jettySize=auto;html=1;exitX=0.5;exitY=0;exitDx=0;exitDy=0;entryX=0.5;entryY=1;entryDx=0;entryDy=0;endArrow=none;endFill=0;" parent="1" source="w6lKKFBIhaXtklg_7PCL-11" target="w6lKKFBIhaXtklg_7PCL-8" edge="1">
          <mxGeometry relative="1" as="geometry" />
        </mxCell>
        <mxCell id="w6lKKFBIhaXtklg_7PCL-11" value="Entrega" style="shape=rhombus;perimeter=rhombusPerimeter;whiteSpace=wrap;html=1;align=center;strokeColor=none;fillColor=#99CCFF;" parent="1" vertex="1">
          <mxGeometry x="500" y="120" width="120" height="60" as="geometry" />
        </mxCell>
        <mxCell id="w6lKKFBIhaXtklg_7PCL-33" style="edgeStyle=orthogonalEdgeStyle;rounded=0;orthogonalLoop=1;jettySize=auto;html=1;exitX=0.5;exitY=1;exitDx=0;exitDy=0;entryX=0.75;entryY=0;entryDx=0;entryDy=0;endArrow=none;endFill=0;" parent="1" source="w6lKKFBIhaXtklg_7PCL-12" target="w6lKKFBIhaXtklg_7PCL-2" edge="1">
          <mxGeometry relative="1" as="geometry" />
        </mxCell>
        <mxCell id="w6lKKFBIhaXtklg_7PCL-35" style="edgeStyle=orthogonalEdgeStyle;rounded=0;orthogonalLoop=1;jettySize=auto;html=1;exitX=0.5;exitY=0;exitDx=0;exitDy=0;entryX=0.5;entryY=1;entryDx=0;entryDy=0;endArrow=none;endFill=0;" parent="1" source="w6lKKFBIhaXtklg_7PCL-12" target="w6lKKFBIhaXtklg_7PCL-6" edge="1">
          <mxGeometry relative="1" as="geometry" />
        </mxCell>
        <mxCell id="w6lKKFBIhaXtklg_7PCL-12" value="Trabalha" style="shape=rhombus;perimeter=rhombusPerimeter;whiteSpace=wrap;html=1;align=center;strokeColor=none;fillColor=#99CCFF;" parent="1" vertex="1">
          <mxGeometry x="500" y="320" width="120" height="60" as="geometry" />
        </mxCell>
        <mxCell id="w6lKKFBIhaXtklg_7PCL-13" value="Possui" style="shape=rhombus;perimeter=rhombusPerimeter;whiteSpace=wrap;html=1;align=center;strokeColor=none;fillColor=#99CCFF;" parent="1" vertex="1">
          <mxGeometry x="140" y="120" width="120" height="60" as="geometry" />
        </mxCell>
        <mxCell id="w6lKKFBIhaXtklg_7PCL-14" value="Mora" style="shape=rhombus;perimeter=rhombusPerimeter;whiteSpace=wrap;html=1;align=center;strokeColor=none;fillColor=#99CCFF;" parent="1" vertex="1">
          <mxGeometry x="140" y="320" width="120" height="60" as="geometry" />
        </mxCell>
        <mxCell id="w6lKKFBIhaXtklg_7PCL-42" style="edgeStyle=orthogonalEdgeStyle;rounded=0;orthogonalLoop=1;jettySize=auto;html=1;exitX=0.5;exitY=0;exitDx=0;exitDy=0;entryX=0.75;entryY=1;entryDx=0;entryDy=0;endArrow=none;endFill=0;" parent="1" source="w6lKKFBIhaXtklg_7PCL-15" target="w6lKKFBIhaXtklg_7PCL-5" edge="1">
          <mxGeometry relative="1" as="geometry">
            <Array as="points">
              <mxPoint x="380" y="110" />
              <mxPoint x="225" y="110" />
            </Array>
          </mxGeometry>
        </mxCell>
        <mxCell id="w6lKKFBIhaXtklg_7PCL-15" value="Instalado" style="shape=rhombus;perimeter=rhombusPerimeter;whiteSpace=wrap;html=1;align=center;strokeColor=none;fillColor=#99CCFF;" parent="1" vertex="1">
          <mxGeometry x="320" y="220" width="120" height="60" as="geometry" />
        </mxCell>
        <mxCell id="w6lKKFBIhaXtklg_7PCL-40" style="edgeStyle=orthogonalEdgeStyle;rounded=0;orthogonalLoop=1;jettySize=auto;html=1;exitX=0;exitY=0;exitDx=0;exitDy=0;entryX=0.75;entryY=1;entryDx=0;entryDy=0;endArrow=none;endFill=0;" parent="1" source="w6lKKFBIhaXtklg_7PCL-16" target="w6lKKFBIhaXtklg_7PCL-8" edge="1">
          <mxGeometry relative="1" as="geometry">
            <Array as="points">
              <mxPoint x="650" y="235" />
              <mxPoint x="650" y="100" />
              <mxPoint x="585" y="100" />
            </Array>
          </mxGeometry>
        </mxCell>
        <mxCell id="w6lKKFBIhaXtklg_7PCL-16" value="Realiza" style="shape=rhombus;perimeter=rhombusPerimeter;whiteSpace=wrap;html=1;align=center;strokeColor=none;fillColor=#99CCFF;" parent="1" vertex="1">
          <mxGeometry x="680" y="220" width="120" height="60" as="geometry" />
        </mxCell>
        <mxCell id="w6lKKFBIhaXtklg_7PCL-34" style="edgeStyle=orthogonalEdgeStyle;rounded=0;orthogonalLoop=1;jettySize=auto;html=1;exitX=0;exitY=0.5;exitDx=0;exitDy=0;entryX=1;entryY=0.5;entryDx=0;entryDy=0;endArrow=none;endFill=0;" parent="1" source="w6lKKFBIhaXtklg_7PCL-17" target="w6lKKFBIhaXtklg_7PCL-2" edge="1">
          <mxGeometry relative="1" as="geometry" />
        </mxCell>
        <mxCell id="w6lKKFBIhaXtklg_7PCL-17" value="Reside" style="shape=rhombus;perimeter=rhombusPerimeter;whiteSpace=wrap;html=1;align=center;strokeColor=none;fillColor=#99CCFF;" parent="1" vertex="1">
          <mxGeometry x="500" y="410" width="120" height="60" as="geometry" />
        </mxCell>
        <mxCell id="w6lKKFBIhaXtklg_7PCL-18" value="Pertence" style="shape=rhombus;perimeter=rhombusPerimeter;whiteSpace=wrap;html=1;align=center;strokeColor=none;fillColor=#99CCFF;" parent="1" vertex="1">
          <mxGeometry x="320" y="520" width="120" height="60" as="geometry" />
        </mxCell>
        <mxCell id="w6lKKFBIhaXtklg_7PCL-21" value="" style="endArrow=none;html=1;rounded=0;entryX=0.5;entryY=0;entryDx=0;entryDy=0;exitX=0.5;exitY=1;exitDx=0;exitDy=0;" parent="1" source="w6lKKFBIhaXtklg_7PCL-5" target="w6lKKFBIhaXtklg_7PCL-13" edge="1">
          <mxGeometry width="50" height="50" relative="1" as="geometry">
            <mxPoint x="280" y="190" as="sourcePoint" />
            <mxPoint x="330" y="140" as="targetPoint" />
          </mxGeometry>
        </mxCell>
        <mxCell id="w6lKKFBIhaXtklg_7PCL-22" value="" style="endArrow=none;html=1;rounded=0;entryX=0.5;entryY=0;entryDx=0;entryDy=0;exitX=0.5;exitY=1;exitDx=0;exitDy=0;" parent="1" source="w6lKKFBIhaXtklg_7PCL-13" target="w6lKKFBIhaXtklg_7PCL-3" edge="1">
          <mxGeometry width="50" height="50" relative="1" as="geometry">
            <mxPoint x="210" y="200" as="sourcePoint" />
            <mxPoint x="300" y="240" as="targetPoint" />
          </mxGeometry>
        </mxCell>
        <mxCell id="w6lKKFBIhaXtklg_7PCL-24" value="" style="endArrow=none;html=1;rounded=0;entryX=0.5;entryY=1;entryDx=0;entryDy=0;exitX=0.5;exitY=0;exitDx=0;exitDy=0;" parent="1" source="w6lKKFBIhaXtklg_7PCL-14" target="w6lKKFBIhaXtklg_7PCL-3" edge="1">
          <mxGeometry width="50" height="50" relative="1" as="geometry">
            <mxPoint x="290" y="320" as="sourcePoint" />
            <mxPoint x="290" y="370" as="targetPoint" />
          </mxGeometry>
        </mxCell>
        <mxCell id="w6lKKFBIhaXtklg_7PCL-25" value="" style="endArrow=none;html=1;rounded=0;entryX=0.25;entryY=0;entryDx=0;entryDy=0;exitX=0.5;exitY=1;exitDx=0;exitDy=0;" parent="1" source="w6lKKFBIhaXtklg_7PCL-14" target="w6lKKFBIhaXtklg_7PCL-2" edge="1">
          <mxGeometry width="50" height="50" relative="1" as="geometry">
            <mxPoint x="200" y="420" as="sourcePoint" />
            <mxPoint x="200" y="470" as="targetPoint" />
            <Array as="points">
              <mxPoint x="200" y="400" />
              <mxPoint x="330" y="400" />
              <mxPoint x="355" y="400" />
            </Array>
          </mxGeometry>
        </mxCell>
        <mxCell id="w6lKKFBIhaXtklg_7PCL-26" value="" style="endArrow=none;html=1;rounded=0;entryX=0.5;entryY=0;entryDx=0;entryDy=0;exitX=0.5;exitY=1;exitDx=0;exitDy=0;" parent="1" source="w6lKKFBIhaXtklg_7PCL-2" target="w6lKKFBIhaXtklg_7PCL-18" edge="1">
          <mxGeometry width="50" height="50" relative="1" as="geometry">
            <mxPoint x="360" y="490" as="sourcePoint" />
            <mxPoint x="360" y="540" as="targetPoint" />
          </mxGeometry>
        </mxCell>
        <mxCell id="w6lKKFBIhaXtklg_7PCL-27" value="" style="endArrow=none;html=1;rounded=0;exitX=0;exitY=0.5;exitDx=0;exitDy=0;entryX=1;entryY=0.5;entryDx=0;entryDy=0;" parent="1" source="w6lKKFBIhaXtklg_7PCL-18" target="w6lKKFBIhaXtklg_7PCL-1" edge="1">
          <mxGeometry width="50" height="50" relative="1" as="geometry">
            <mxPoint x="200" y="590" as="sourcePoint" />
            <mxPoint x="270" y="550" as="targetPoint" />
          </mxGeometry>
        </mxCell>
        <mxCell id="w6lKKFBIhaXtklg_7PCL-28" value="" style="endArrow=none;html=1;rounded=0;entryX=0;entryY=0.5;entryDx=0;entryDy=0;exitX=1;exitY=0.5;exitDx=0;exitDy=0;" parent="1" source="w6lKKFBIhaXtklg_7PCL-5" target="w6lKKFBIhaXtklg_7PCL-9" edge="1">
          <mxGeometry width="50" height="50" relative="1" as="geometry">
            <mxPoint x="300" y="90" as="sourcePoint" />
            <mxPoint x="300" y="140" as="targetPoint" />
          </mxGeometry>
        </mxCell>
        <mxCell id="w6lKKFBIhaXtklg_7PCL-29" value="" style="endArrow=none;html=1;rounded=0;entryX=1;entryY=0.5;entryDx=0;entryDy=0;exitX=0;exitY=0.5;exitDx=0;exitDy=0;" parent="1" source="w6lKKFBIhaXtklg_7PCL-8" target="w6lKKFBIhaXtklg_7PCL-9" edge="1">
          <mxGeometry width="50" height="50" relative="1" as="geometry">
            <mxPoint x="460" y="60" as="sourcePoint" />
            <mxPoint x="460" y="110" as="targetPoint" />
          </mxGeometry>
        </mxCell>
        <mxCell id="w6lKKFBIhaXtklg_7PCL-39" style="edgeStyle=orthogonalEdgeStyle;rounded=0;orthogonalLoop=1;jettySize=auto;html=1;exitX=0.5;exitY=0;exitDx=0;exitDy=0;entryX=0.5;entryY=1;entryDx=0;entryDy=0;endArrow=none;endFill=0;" parent="1" source="w6lKKFBIhaXtklg_7PCL-4" target="w6lKKFBIhaXtklg_7PCL-16" edge="1">
          <mxGeometry relative="1" as="geometry" />
        </mxCell>
        <mxCell id="w6lKKFBIhaXtklg_7PCL-110" style="edgeStyle=orthogonalEdgeStyle;rounded=0;orthogonalLoop=1;jettySize=auto;html=1;exitX=0.25;exitY=0;exitDx=0;exitDy=0;endArrow=oval;endFill=0;" parent="1" source="w6lKKFBIhaXtklg_7PCL-5" edge="1">
          <mxGeometry relative="1" as="geometry">
            <mxPoint x="200" as="targetPoint" />
            <mxPoint x="220" y="-10" as="sourcePoint" />
            <Array as="points">
              <mxPoint x="175" />
              <mxPoint x="200" />
            </Array>
          </mxGeometry>
        </mxCell>
        <mxCell id="w6lKKFBIhaXtklg_7PCL-111" style="edgeStyle=orthogonalEdgeStyle;rounded=0;orthogonalLoop=1;jettySize=auto;html=1;exitX=0.25;exitY=0;exitDx=0;exitDy=0;endArrow=oval;endFill=0;" parent="1" source="w6lKKFBIhaXtklg_7PCL-5" edge="1">
          <mxGeometry relative="1" as="geometry">
            <mxPoint x="200" y="-20" as="targetPoint" />
            <mxPoint x="260" y="-40" as="sourcePoint" />
            <Array as="points">
              <mxPoint x="175" y="-20" />
              <mxPoint x="200" y="-20" />
            </Array>
          </mxGeometry>
        </mxCell>
        <mxCell id="w6lKKFBIhaXtklg_7PCL-112" style="edgeStyle=orthogonalEdgeStyle;rounded=0;orthogonalLoop=1;jettySize=auto;html=1;exitX=0.25;exitY=0;exitDx=0;exitDy=0;endArrow=oval;endFill=1;" parent="1" source="w6lKKFBIhaXtklg_7PCL-5" edge="1">
          <mxGeometry relative="1" as="geometry">
            <mxPoint x="200" y="-60" as="targetPoint" />
            <mxPoint x="240" y="-40" as="sourcePoint" />
            <Array as="points">
              <mxPoint x="175" y="-60" />
              <mxPoint x="200" y="-60" />
            </Array>
          </mxGeometry>
        </mxCell>
        <mxCell id="w6lKKFBIhaXtklg_7PCL-113" style="edgeStyle=orthogonalEdgeStyle;rounded=0;orthogonalLoop=1;jettySize=auto;html=1;exitX=0.25;exitY=0;exitDx=0;exitDy=0;endArrow=oval;endFill=0;" parent="1" source="w6lKKFBIhaXtklg_7PCL-5" edge="1">
          <mxGeometry relative="1" as="geometry">
            <mxPoint x="200" y="20" as="targetPoint" />
            <mxPoint x="260" y="-40" as="sourcePoint" />
            <Array as="points">
              <mxPoint x="175" y="20" />
              <mxPoint x="200" y="20" />
            </Array>
          </mxGeometry>
        </mxCell>
        <mxCell id="w6lKKFBIhaXtklg_7PCL-114" value="id" style="text;html=1;align=left;verticalAlign=middle;resizable=0;points=[];autosize=1;strokeColor=none;fillColor=none;" parent="1" vertex="1">
          <mxGeometry x="205" y="-76" width="30" height="30" as="geometry" />
        </mxCell>
        <mxCell id="w6lKKFBIhaXtklg_7PCL-115" value="razaoSocial" style="text;html=1;align=left;verticalAlign=middle;resizable=0;points=[];autosize=1;strokeColor=none;fillColor=none;" parent="1" vertex="1">
          <mxGeometry x="205" y="-56" width="90" height="30" as="geometry" />
        </mxCell>
        <mxCell id="w6lKKFBIhaXtklg_7PCL-116" value="endereco" style="text;html=1;align=left;verticalAlign=middle;resizable=0;points=[];autosize=1;strokeColor=none;fillColor=none;" parent="1" vertex="1">
          <mxGeometry x="205" y="-37" width="80" height="30" as="geometry" />
        </mxCell>
        <mxCell id="w6lKKFBIhaXtklg_7PCL-117" value="telefone" style="text;html=1;align=left;verticalAlign=middle;resizable=0;points=[];autosize=1;strokeColor=none;fillColor=none;" parent="1" vertex="1">
          <mxGeometry x="206" y="-17" width="70" height="30" as="geometry" />
        </mxCell>
        <mxCell id="w6lKKFBIhaXtklg_7PCL-118" value="nomeFantasia" style="text;html=1;align=left;verticalAlign=middle;resizable=0;points=[];autosize=1;strokeColor=none;fillColor=none;" parent="1" vertex="1">
          <mxGeometry x="206" y="3" width="100" height="30" as="geometry" />
        </mxCell>
        <mxCell id="w6lKKFBIhaXtklg_7PCL-120" style="edgeStyle=orthogonalEdgeStyle;rounded=0;orthogonalLoop=1;jettySize=auto;html=1;exitX=0.25;exitY=0;exitDx=0;exitDy=0;endArrow=oval;endFill=0;" parent="1" source="w6lKKFBIhaXtklg_7PCL-8" edge="1">
          <mxGeometry relative="1" as="geometry">
            <mxPoint x="560" as="targetPoint" />
            <mxPoint x="520.03" y="13.030000000000001" as="sourcePoint" />
            <Array as="points">
              <mxPoint x="535" />
              <mxPoint x="560" />
            </Array>
          </mxGeometry>
        </mxCell>
        <mxCell id="w6lKKFBIhaXtklg_7PCL-121" style="edgeStyle=orthogonalEdgeStyle;rounded=0;orthogonalLoop=1;jettySize=auto;html=1;exitX=0.25;exitY=0;exitDx=0;exitDy=0;endArrow=oval;endFill=0;" parent="1" source="w6lKKFBIhaXtklg_7PCL-8" edge="1">
          <mxGeometry relative="1" as="geometry">
            <mxPoint x="560" y="-20" as="targetPoint" />
            <mxPoint x="550" as="sourcePoint" />
            <Array as="points">
              <mxPoint x="535" y="-20" />
              <mxPoint x="560" y="-20" />
            </Array>
          </mxGeometry>
        </mxCell>
        <mxCell id="w6lKKFBIhaXtklg_7PCL-122" style="edgeStyle=orthogonalEdgeStyle;rounded=0;orthogonalLoop=1;jettySize=auto;html=1;exitX=0.25;exitY=0;exitDx=0;exitDy=0;endArrow=oval;endFill=1;" parent="1" source="w6lKKFBIhaXtklg_7PCL-8" edge="1">
          <mxGeometry relative="1" as="geometry">
            <mxPoint x="560" y="-40" as="targetPoint" />
            <mxPoint x="570" as="sourcePoint" />
            <Array as="points">
              <mxPoint x="535" y="-40" />
            </Array>
          </mxGeometry>
        </mxCell>
        <mxCell id="w6lKKFBIhaXtklg_7PCL-123" style="edgeStyle=orthogonalEdgeStyle;rounded=0;orthogonalLoop=1;jettySize=auto;html=1;exitX=0.25;exitY=0;exitDx=0;exitDy=0;endArrow=oval;endFill=0;" parent="1" source="w6lKKFBIhaXtklg_7PCL-8" edge="1">
          <mxGeometry relative="1" as="geometry">
            <mxPoint x="560" y="20" as="targetPoint" />
            <mxPoint x="590" as="sourcePoint" />
            <Array as="points">
              <mxPoint x="535" y="20" />
            </Array>
          </mxGeometry>
        </mxCell>
        <mxCell id="w6lKKFBIhaXtklg_7PCL-124" value="id" style="text;html=1;align=left;verticalAlign=middle;resizable=0;points=[];autosize=1;strokeColor=none;fillColor=none;" parent="1" vertex="1">
          <mxGeometry x="565" y="-56" width="30" height="30" as="geometry" />
        </mxCell>
        <mxCell id="w6lKKFBIhaXtklg_7PCL-125" value="data" style="text;html=1;align=left;verticalAlign=middle;resizable=0;points=[];autosize=1;strokeColor=none;fillColor=none;" parent="1" vertex="1">
          <mxGeometry x="565" y="-37" width="50" height="30" as="geometry" />
        </mxCell>
        <mxCell id="w6lKKFBIhaXtklg_7PCL-126" value="totalPedido" style="text;html=1;align=left;verticalAlign=middle;resizable=0;points=[];autosize=1;strokeColor=none;fillColor=none;" parent="1" vertex="1">
          <mxGeometry x="565" y="-17" width="90" height="30" as="geometry" />
        </mxCell>
        <mxCell id="w6lKKFBIhaXtklg_7PCL-127" value="statusPedido" style="text;html=1;align=left;verticalAlign=middle;resizable=0;points=[];autosize=1;strokeColor=none;fillColor=none;" parent="1" vertex="1">
          <mxGeometry x="565" y="3" width="100" height="30" as="geometry" />
        </mxCell>
        <mxCell id="w6lKKFBIhaXtklg_7PCL-128" style="edgeStyle=orthogonalEdgeStyle;rounded=0;orthogonalLoop=1;jettySize=auto;html=1;exitX=0.75;exitY=0;exitDx=0;exitDy=0;endArrow=oval;endFill=1;" parent="1" source="w6lKKFBIhaXtklg_7PCL-7" edge="1">
          <mxGeometry relative="1" as="geometry">
            <mxPoint x="840" y="120" as="targetPoint" />
            <mxPoint x="800" y="140" as="sourcePoint" />
            <Array as="points">
              <mxPoint x="765" y="120" />
              <mxPoint x="840" y="120" />
            </Array>
          </mxGeometry>
        </mxCell>
        <mxCell id="w6lKKFBIhaXtklg_7PCL-129" style="edgeStyle=orthogonalEdgeStyle;rounded=0;orthogonalLoop=1;jettySize=auto;html=1;exitX=1;exitY=0.25;exitDx=0;exitDy=0;endArrow=oval;endFill=0;" parent="1" edge="1">
          <mxGeometry relative="1" as="geometry">
            <mxPoint x="840" y="134" as="targetPoint" />
            <mxPoint x="790" y="134" as="sourcePoint" />
            <Array as="points" />
          </mxGeometry>
        </mxCell>
        <mxCell id="w6lKKFBIhaXtklg_7PCL-130" style="edgeStyle=orthogonalEdgeStyle;rounded=0;orthogonalLoop=1;jettySize=auto;html=1;exitX=1;exitY=0.5;exitDx=0;exitDy=0;endArrow=oval;endFill=0;" parent="1" source="w6lKKFBIhaXtklg_7PCL-7" edge="1">
          <mxGeometry relative="1" as="geometry">
            <mxPoint x="840" y="150" as="targetPoint" />
            <mxPoint x="800" y="150" as="sourcePoint" />
            <Array as="points" />
          </mxGeometry>
        </mxCell>
        <mxCell id="w6lKKFBIhaXtklg_7PCL-131" style="edgeStyle=orthogonalEdgeStyle;rounded=0;orthogonalLoop=1;jettySize=auto;html=1;exitX=1;exitY=0.75;exitDx=0;exitDy=0;endArrow=oval;endFill=0;" parent="1" edge="1">
          <mxGeometry relative="1" as="geometry">
            <mxPoint x="840" y="166" as="targetPoint" />
            <mxPoint x="790" y="166" as="sourcePoint" />
            <Array as="points" />
          </mxGeometry>
        </mxCell>
        <mxCell id="w6lKKFBIhaXtklg_7PCL-134" style="edgeStyle=orthogonalEdgeStyle;rounded=0;orthogonalLoop=1;jettySize=auto;html=1;endArrow=oval;endFill=0;exitX=0.75;exitY=1;exitDx=0;exitDy=0;" parent="1" source="w6lKKFBIhaXtklg_7PCL-7" edge="1">
          <mxGeometry relative="1" as="geometry">
            <mxPoint x="840" y="180" as="targetPoint" />
            <mxPoint x="800" y="170" as="sourcePoint" />
            <Array as="points">
              <mxPoint x="765" y="180" />
            </Array>
          </mxGeometry>
        </mxCell>
        <mxCell id="w6lKKFBIhaXtklg_7PCL-136" value="id" style="text;html=1;align=left;verticalAlign=middle;resizable=0;points=[];autosize=1;strokeColor=none;fillColor=none;" parent="1" vertex="1">
          <mxGeometry x="846" y="104" width="30" height="30" as="geometry" />
        </mxCell>
        <mxCell id="w6lKKFBIhaXtklg_7PCL-138" value="descricao" style="text;html=1;align=left;verticalAlign=middle;resizable=0;points=[];autosize=1;strokeColor=none;fillColor=none;" parent="1" vertex="1">
          <mxGeometry x="846" y="117" width="80" height="30" as="geometry" />
        </mxCell>
        <mxCell id="w6lKKFBIhaXtklg_7PCL-139" value="valorUnitario" style="text;strokeColor=none;align=left;fillColor=none;html=1;verticalAlign=middle;whiteSpace=wrap;rounded=0;" parent="1" vertex="1">
          <mxGeometry x="846" y="133" width="60" height="30" as="geometry" />
        </mxCell>
        <mxCell id="w6lKKFBIhaXtklg_7PCL-140" value="estoque" style="text;html=1;align=left;verticalAlign=middle;resizable=0;points=[];autosize=1;strokeColor=none;fillColor=none;" parent="1" vertex="1">
          <mxGeometry x="846" y="149" width="70" height="30" as="geometry" />
        </mxCell>
        <mxCell id="w6lKKFBIhaXtklg_7PCL-141" value="tipo" style="text;html=1;align=left;verticalAlign=middle;resizable=0;points=[];autosize=1;strokeColor=none;fillColor=none;" parent="1" vertex="1">
          <mxGeometry x="846" y="163" width="40" height="30" as="geometry" />
        </mxCell>
        <mxCell id="w6lKKFBIhaXtklg_7PCL-142" style="edgeStyle=orthogonalEdgeStyle;rounded=0;orthogonalLoop=1;jettySize=auto;html=1;exitX=0.75;exitY=1;exitDx=0;exitDy=0;endArrow=oval;endFill=1;" parent="1" source="w6lKKFBIhaXtklg_7PCL-6" edge="1">
          <mxGeometry relative="1" as="geometry">
            <mxPoint x="600" y="280" as="targetPoint" />
            <mxPoint x="610" y="280" as="sourcePoint" />
            <Array as="points">
              <mxPoint x="585" y="280" />
            </Array>
          </mxGeometry>
        </mxCell>
        <mxCell id="w6lKKFBIhaXtklg_7PCL-143" style="edgeStyle=orthogonalEdgeStyle;rounded=0;orthogonalLoop=1;jettySize=auto;html=1;endArrow=oval;endFill=0;exitX=0.75;exitY=1;exitDx=0;exitDy=0;" parent="1" source="w6lKKFBIhaXtklg_7PCL-6" edge="1">
          <mxGeometry relative="1" as="geometry">
            <mxPoint x="610" y="290" as="targetPoint" />
            <mxPoint x="590" y="280" as="sourcePoint" />
            <Array as="points">
              <mxPoint x="585" y="290" />
            </Array>
          </mxGeometry>
        </mxCell>
        <mxCell id="w6lKKFBIhaXtklg_7PCL-144" style="edgeStyle=orthogonalEdgeStyle;rounded=0;orthogonalLoop=1;jettySize=auto;html=1;exitX=0.75;exitY=1;exitDx=0;exitDy=0;endArrow=oval;endFill=0;" parent="1" source="w6lKKFBIhaXtklg_7PCL-6" edge="1">
          <mxGeometry relative="1" as="geometry">
            <mxPoint x="620" y="300" as="targetPoint" />
            <mxPoint x="588.0000000000001" y="270" as="sourcePoint" />
            <Array as="points">
              <mxPoint x="585" y="300" />
            </Array>
          </mxGeometry>
        </mxCell>
        <mxCell id="w6lKKFBIhaXtklg_7PCL-145" style="edgeStyle=orthogonalEdgeStyle;rounded=0;orthogonalLoop=1;jettySize=auto;html=1;exitX=0.75;exitY=1;exitDx=0;exitDy=0;endArrow=oval;endFill=0;" parent="1" source="w6lKKFBIhaXtklg_7PCL-6" edge="1">
          <mxGeometry relative="1" as="geometry">
            <mxPoint x="630" y="310" as="targetPoint" />
            <mxPoint x="595" y="280" as="sourcePoint" />
            <Array as="points">
              <mxPoint x="585" y="310" />
            </Array>
          </mxGeometry>
        </mxCell>
        <mxCell id="w6lKKFBIhaXtklg_7PCL-146" style="edgeStyle=orthogonalEdgeStyle;rounded=0;orthogonalLoop=1;jettySize=auto;html=1;exitX=0.75;exitY=1;exitDx=0;exitDy=0;endArrow=oval;endFill=0;" parent="1" source="w6lKKFBIhaXtklg_7PCL-6" edge="1">
          <mxGeometry relative="1" as="geometry">
            <mxPoint x="640" y="320" as="targetPoint" />
            <mxPoint x="595" y="280" as="sourcePoint" />
            <Array as="points">
              <mxPoint x="585" y="320" />
            </Array>
          </mxGeometry>
        </mxCell>
        <mxCell id="w6lKKFBIhaXtklg_7PCL-147" value="id" style="text;html=1;align=center;verticalAlign=middle;resizable=0;points=[];autosize=1;strokeColor=none;fillColor=none;" parent="1" vertex="1">
          <mxGeometry x="596" y="263" width="30" height="30" as="geometry" />
        </mxCell>
        <mxCell id="w6lKKFBIhaXtklg_7PCL-148" value="cnh" style="text;html=1;align=center;verticalAlign=middle;resizable=0;points=[];autosize=1;strokeColor=none;fillColor=none;" parent="1" vertex="1">
          <mxGeometry x="606" y="273" width="40" height="30" as="geometry" />
        </mxCell>
        <mxCell id="w6lKKFBIhaXtklg_7PCL-149" value="nome" style="text;html=1;align=center;verticalAlign=middle;resizable=0;points=[];autosize=1;strokeColor=none;fillColor=none;" parent="1" vertex="1">
          <mxGeometry x="612" y="283" width="60" height="30" as="geometry" />
        </mxCell>
        <mxCell id="w6lKKFBIhaXtklg_7PCL-150" value="endereco" style="text;html=1;align=center;verticalAlign=middle;resizable=0;points=[];autosize=1;strokeColor=none;fillColor=none;" parent="1" vertex="1">
          <mxGeometry x="622" y="293" width="80" height="30" as="geometry" />
        </mxCell>
        <mxCell id="w6lKKFBIhaXtklg_7PCL-151" value="telefone" style="text;html=1;align=center;verticalAlign=middle;resizable=0;points=[];autosize=1;strokeColor=none;fillColor=none;" parent="1" vertex="1">
          <mxGeometry x="633" y="303" width="70" height="30" as="geometry" />
        </mxCell>
        <mxCell id="w6lKKFBIhaXtklg_7PCL-152" style="edgeStyle=orthogonalEdgeStyle;rounded=0;orthogonalLoop=1;jettySize=auto;html=1;exitX=0.25;exitY=1;exitDx=0;exitDy=0;endArrow=oval;endFill=1;" parent="1" source="w6lKKFBIhaXtklg_7PCL-4" edge="1">
          <mxGeometry relative="1" as="geometry">
            <mxPoint x="760" y="470" as="targetPoint" />
            <mxPoint x="690" y="510" as="sourcePoint" />
            <Array as="points">
              <mxPoint x="715" y="470" />
              <mxPoint x="760" y="470" />
            </Array>
          </mxGeometry>
        </mxCell>
        <mxCell id="w6lKKFBIhaXtklg_7PCL-153" style="edgeStyle=orthogonalEdgeStyle;rounded=0;orthogonalLoop=1;jettySize=auto;html=1;exitX=0.25;exitY=1;exitDx=0;exitDy=0;endArrow=oval;endFill=0;" parent="1" source="w6lKKFBIhaXtklg_7PCL-4" edge="1">
          <mxGeometry relative="1" as="geometry">
            <mxPoint x="760" y="490" as="targetPoint" />
            <mxPoint x="725" y="470" as="sourcePoint" />
            <Array as="points">
              <mxPoint x="715" y="490" />
            </Array>
          </mxGeometry>
        </mxCell>
        <mxCell id="w6lKKFBIhaXtklg_7PCL-154" style="edgeStyle=orthogonalEdgeStyle;rounded=0;orthogonalLoop=1;jettySize=auto;html=1;exitX=0.25;exitY=1;exitDx=0;exitDy=0;endArrow=oval;endFill=0;" parent="1" source="w6lKKFBIhaXtklg_7PCL-4" edge="1">
          <mxGeometry relative="1" as="geometry">
            <mxPoint x="760" y="510" as="targetPoint" />
            <mxPoint x="725" y="470" as="sourcePoint" />
            <Array as="points">
              <mxPoint x="715" y="510" />
            </Array>
          </mxGeometry>
        </mxCell>
        <mxCell id="w6lKKFBIhaXtklg_7PCL-156" style="edgeStyle=orthogonalEdgeStyle;rounded=0;orthogonalLoop=1;jettySize=auto;html=1;exitX=0.25;exitY=1;exitDx=0;exitDy=0;endArrow=oval;endFill=0;" parent="1" source="w6lKKFBIhaXtklg_7PCL-4" edge="1">
          <mxGeometry relative="1" as="geometry">
            <mxPoint x="760" y="530" as="targetPoint" />
            <mxPoint x="725" y="470" as="sourcePoint" />
            <Array as="points">
              <mxPoint x="715" y="530" />
            </Array>
          </mxGeometry>
        </mxCell>
        <mxCell id="w6lKKFBIhaXtklg_7PCL-157" style="edgeStyle=orthogonalEdgeStyle;rounded=0;orthogonalLoop=1;jettySize=auto;html=1;endArrow=oval;endFill=0;exitX=0.25;exitY=1;exitDx=0;exitDy=0;" parent="1" source="w6lKKFBIhaXtklg_7PCL-4" edge="1">
          <mxGeometry relative="1" as="geometry">
            <mxPoint x="760" y="550" as="targetPoint" />
            <mxPoint x="740" y="470" as="sourcePoint" />
            <Array as="points">
              <mxPoint x="715" y="550" />
            </Array>
          </mxGeometry>
        </mxCell>
        <mxCell id="w6lKKFBIhaXtklg_7PCL-158" style="edgeStyle=orthogonalEdgeStyle;rounded=0;orthogonalLoop=1;jettySize=auto;html=1;endArrow=oval;endFill=0;exitX=0.25;exitY=1;exitDx=0;exitDy=0;" parent="1" source="w6lKKFBIhaXtklg_7PCL-4" edge="1">
          <mxGeometry relative="1" as="geometry">
            <mxPoint x="760" y="570" as="targetPoint" />
            <mxPoint x="725" y="470" as="sourcePoint" />
            <Array as="points">
              <mxPoint x="715" y="570" />
            </Array>
          </mxGeometry>
        </mxCell>
        <mxCell id="w6lKKFBIhaXtklg_7PCL-159" style="edgeStyle=orthogonalEdgeStyle;rounded=0;orthogonalLoop=1;jettySize=auto;html=1;endArrow=oval;endFill=0;exitX=0.25;exitY=1;exitDx=0;exitDy=0;" parent="1" source="w6lKKFBIhaXtklg_7PCL-4" edge="1">
          <mxGeometry relative="1" as="geometry">
            <mxPoint x="760" y="590" as="targetPoint" />
            <mxPoint x="725" y="470" as="sourcePoint" />
            <Array as="points">
              <mxPoint x="715" y="590" />
            </Array>
          </mxGeometry>
        </mxCell>
        <mxCell id="w6lKKFBIhaXtklg_7PCL-160" style="edgeStyle=orthogonalEdgeStyle;rounded=0;orthogonalLoop=1;jettySize=auto;html=1;endArrow=oval;endFill=0;exitX=0.25;exitY=1;exitDx=0;exitDy=0;" parent="1" source="w6lKKFBIhaXtklg_7PCL-4" edge="1">
          <mxGeometry relative="1" as="geometry">
            <mxPoint x="760" y="610" as="targetPoint" />
            <mxPoint x="725" y="470" as="sourcePoint" />
            <Array as="points">
              <mxPoint x="715" y="610" />
            </Array>
          </mxGeometry>
        </mxCell>
        <mxCell id="w6lKKFBIhaXtklg_7PCL-161" style="edgeStyle=orthogonalEdgeStyle;rounded=0;orthogonalLoop=1;jettySize=auto;html=1;endArrow=oval;endFill=0;exitX=0.25;exitY=1;exitDx=0;exitDy=0;" parent="1" source="w6lKKFBIhaXtklg_7PCL-4" edge="1">
          <mxGeometry relative="1" as="geometry">
            <mxPoint x="760" y="630" as="targetPoint" />
            <mxPoint x="725" y="470" as="sourcePoint" />
            <Array as="points">
              <mxPoint x="715" y="630" />
            </Array>
          </mxGeometry>
        </mxCell>
        <mxCell id="w6lKKFBIhaXtklg_7PCL-199" value="&lt;div align=&quot;left&quot;&gt;endereÃ§o&lt;/div&gt;" style="text;html=1;align=left;verticalAlign=middle;resizable=0;points=[];autosize=1;strokeColor=none;fillColor=none;" parent="1" vertex="1">
          <mxGeometry x="764" y="613" width="80" height="30" as="geometry" />
        </mxCell>
        <mxCell id="w6lKKFBIhaXtklg_7PCL-200" value="cidade" style="text;html=1;align=left;verticalAlign=middle;resizable=0;points=[];autosize=1;strokeColor=none;fillColor=none;" parent="1" vertex="1">
          <mxGeometry x="764" y="593" width="60" height="30" as="geometry" />
        </mxCell>
        <mxCell id="w6lKKFBIhaXtklg_7PCL-201" value="genero" style="text;html=1;align=left;verticalAlign=middle;resizable=0;points=[];autosize=1;strokeColor=none;fillColor=none;" parent="1" vertex="1">
          <mxGeometry x="764" y="573" width="60" height="30" as="geometry" />
        </mxCell>
        <mxCell id="w6lKKFBIhaXtklg_7PCL-202" value="dataNascimento" style="text;html=1;align=left;verticalAlign=middle;resizable=0;points=[];autosize=1;strokeColor=none;fillColor=none;" parent="1" vertex="1">
          <mxGeometry x="764" y="553" width="110" height="30" as="geometry" />
        </mxCell>
        <mxCell id="w6lKKFBIhaXtklg_7PCL-203" value="&lt;div align=&quot;left&quot;&gt;senha&lt;/div&gt;" style="text;html=1;align=left;verticalAlign=middle;resizable=0;points=[];autosize=1;strokeColor=none;fillColor=none;" parent="1" vertex="1">
          <mxGeometry x="764" y="533" width="60" height="30" as="geometry" />
        </mxCell>
        <mxCell id="w6lKKFBIhaXtklg_7PCL-204" value="email" style="text;html=1;align=left;verticalAlign=middle;resizable=0;points=[];autosize=1;strokeColor=none;fillColor=none;" parent="1" vertex="1">
          <mxGeometry x="764" y="513" width="50" height="30" as="geometry" />
        </mxCell>
        <mxCell id="w6lKKFBIhaXtklg_7PCL-205" value="nome" style="text;html=1;align=left;verticalAlign=middle;resizable=0;points=[];autosize=1;strokeColor=none;fillColor=none;" parent="1" vertex="1">
          <mxGeometry x="764" y="473" width="60" height="30" as="geometry" />
        </mxCell>
        <mxCell id="w6lKKFBIhaXtklg_7PCL-206" value="telefone" style="text;html=1;align=left;verticalAlign=middle;resizable=0;points=[];autosize=1;strokeColor=none;fillColor=none;" parent="1" vertex="1">
          <mxGeometry x="764" y="494" width="70" height="30" as="geometry" />
        </mxCell>
        <mxCell id="w6lKKFBIhaXtklg_7PCL-207" value="&lt;div align=&quot;left&quot;&gt;id&lt;/div&gt;" style="text;html=1;align=left;verticalAlign=middle;resizable=0;points=[];autosize=1;strokeColor=none;fillColor=none;" parent="1" vertex="1">
          <mxGeometry x="764" y="454" width="30" height="30" as="geometry" />
        </mxCell>
        <mxCell id="w6lKKFBIhaXtklg_7PCL-189" style="edgeStyle=orthogonalEdgeStyle;rounded=0;orthogonalLoop=1;jettySize=auto;html=1;exitX=0.25;exitY=1;exitDx=0;exitDy=0;endArrow=oval;endFill=0;" parent="1" edge="1">
          <mxGeometry relative="1" as="geometry">
            <mxPoint x="814" y="643" as="targetPoint" />
            <mxPoint x="769" y="633" as="sourcePoint" />
            <Array as="points">
              <mxPoint x="769" y="643" />
              <mxPoint x="814" y="643" />
            </Array>
          </mxGeometry>
        </mxCell>
        <mxCell id="w6lKKFBIhaXtklg_7PCL-190" style="edgeStyle=orthogonalEdgeStyle;rounded=0;orthogonalLoop=1;jettySize=auto;html=1;exitX=0.25;exitY=1;exitDx=0;exitDy=0;endArrow=oval;endFill=0;" parent="1" edge="1">
          <mxGeometry relative="1" as="geometry">
            <mxPoint x="814" y="663" as="targetPoint" />
            <mxPoint x="769" y="633" as="sourcePoint" />
            <Array as="points">
              <mxPoint x="769" y="663" />
            </Array>
          </mxGeometry>
        </mxCell>
        <mxCell id="w6lKKFBIhaXtklg_7PCL-191" style="edgeStyle=orthogonalEdgeStyle;rounded=0;orthogonalLoop=1;jettySize=auto;html=1;exitX=0.25;exitY=1;exitDx=0;exitDy=0;endArrow=oval;endFill=0;" parent="1" edge="1">
          <mxGeometry relative="1" as="geometry">
            <mxPoint x="814" y="683" as="targetPoint" />
            <mxPoint x="769" y="633" as="sourcePoint" />
            <Array as="points">
              <mxPoint x="769" y="683" />
            </Array>
          </mxGeometry>
        </mxCell>
        <mxCell id="w6lKKFBIhaXtklg_7PCL-192" style="edgeStyle=orthogonalEdgeStyle;rounded=0;orthogonalLoop=1;jettySize=auto;html=1;exitX=0.25;exitY=1;exitDx=0;exitDy=0;endArrow=oval;endFill=0;" parent="1" edge="1">
          <mxGeometry relative="1" as="geometry">
            <mxPoint x="814" y="703" as="targetPoint" />
            <mxPoint x="769" y="633" as="sourcePoint" />
            <Array as="points">
              <mxPoint x="769" y="703" />
            </Array>
          </mxGeometry>
        </mxCell>
        <mxCell id="w6lKKFBIhaXtklg_7PCL-193" style="edgeStyle=orthogonalEdgeStyle;rounded=0;orthogonalLoop=1;jettySize=auto;html=1;endArrow=oval;endFill=0;exitX=0.25;exitY=1;exitDx=0;exitDy=0;" parent="1" edge="1">
          <mxGeometry relative="1" as="geometry">
            <mxPoint x="814" y="723" as="targetPoint" />
            <mxPoint x="769" y="633" as="sourcePoint" />
            <Array as="points">
              <mxPoint x="769" y="723" />
            </Array>
          </mxGeometry>
        </mxCell>
        <mxCell id="w6lKKFBIhaXtklg_7PCL-194" style="edgeStyle=orthogonalEdgeStyle;rounded=0;orthogonalLoop=1;jettySize=auto;html=1;endArrow=oval;endFill=0;exitX=0.25;exitY=1;exitDx=0;exitDy=0;" parent="1" edge="1">
          <mxGeometry relative="1" as="geometry">
            <mxPoint x="814" y="743" as="targetPoint" />
            <mxPoint x="769" y="633" as="sourcePoint" />
            <Array as="points">
              <mxPoint x="769" y="743" />
            </Array>
          </mxGeometry>
        </mxCell>
        <mxCell id="w6lKKFBIhaXtklg_7PCL-208" value="rua" style="text;html=1;align=left;verticalAlign=middle;resizable=0;points=[];autosize=1;strokeColor=none;fillColor=none;" parent="1" vertex="1">
          <mxGeometry x="819" y="626" width="40" height="30" as="geometry" />
        </mxCell>
        <mxCell id="w6lKKFBIhaXtklg_7PCL-209" value="&lt;div align=&quot;left&quot;&gt;complemento&lt;/div&gt;" style="text;html=1;align=left;verticalAlign=middle;resizable=0;points=[];autosize=1;strokeColor=none;fillColor=none;" parent="1" vertex="1">
          <mxGeometry x="819" y="666" width="100" height="30" as="geometry" />
        </mxCell>
        <mxCell id="w6lKKFBIhaXtklg_7PCL-210" value="&lt;div align=&quot;left&quot;&gt;bairro&lt;/div&gt;" style="text;html=1;align=left;verticalAlign=middle;resizable=0;points=[];autosize=1;strokeColor=none;fillColor=none;" parent="1" vertex="1">
          <mxGeometry x="819" y="686" width="60" height="30" as="geometry" />
        </mxCell>
        <mxCell id="w6lKKFBIhaXtklg_7PCL-211" value="cep" style="text;html=1;align=left;verticalAlign=middle;resizable=0;points=[];autosize=1;strokeColor=none;fillColor=none;" parent="1" vertex="1">
          <mxGeometry x="819" y="706" width="40" height="30" as="geometry" />
        </mxCell>
        <mxCell id="w6lKKFBIhaXtklg_7PCL-212" value="&lt;div align=&quot;left&quot;&gt;pontoReferencia&lt;/div&gt;" style="text;html=1;align=left;verticalAlign=middle;resizable=0;points=[];autosize=1;strokeColor=none;fillColor=none;" parent="1" vertex="1">
          <mxGeometry x="819" y="726" width="110" height="30" as="geometry" />
        </mxCell>
        <mxCell id="w6lKKFBIhaXtklg_7PCL-213" value="&lt;div align=&quot;left&quot;&gt;numero&lt;/div&gt;" style="text;html=1;align=left;verticalAlign=middle;resizable=0;points=[];autosize=1;strokeColor=none;fillColor=none;" parent="1" vertex="1">
          <mxGeometry x="819" y="646" width="70" height="30" as="geometry" />
        </mxCell>
        <mxCell id="w6lKKFBIhaXtklg_7PCL-214" style="edgeStyle=orthogonalEdgeStyle;rounded=0;orthogonalLoop=1;jettySize=auto;html=1;exitX=0;exitY=0.5;exitDx=0;exitDy=0;endArrow=oval;endFill=1;" parent="1" source="w6lKKFBIhaXtklg_7PCL-3" edge="1">
          <mxGeometry relative="1" as="geometry">
            <mxPoint x="40" y="250" as="targetPoint" />
            <mxPoint x="80" y="250" as="sourcePoint" />
            <Array as="points">
              <mxPoint x="40" y="250" />
            </Array>
          </mxGeometry>
        </mxCell>
        <mxCell id="w6lKKFBIhaXtklg_7PCL-215" style="edgeStyle=orthogonalEdgeStyle;rounded=0;orthogonalLoop=1;jettySize=auto;html=1;endArrow=oval;endFill=0;" parent="1" edge="1">
          <mxGeometry relative="1" as="geometry">
            <mxPoint x="40" y="280" as="targetPoint" />
            <mxPoint x="120" y="250" as="sourcePoint" />
            <Array as="points">
              <mxPoint x="120" y="280" />
            </Array>
          </mxGeometry>
        </mxCell>
        <mxCell id="w6lKKFBIhaXtklg_7PCL-245" style="edgeStyle=orthogonalEdgeStyle;rounded=0;orthogonalLoop=1;jettySize=auto;html=1;endArrow=oval;endFill=0;" parent="1" edge="1">
          <mxGeometry relative="1" as="geometry">
            <mxPoint x="40" y="310" as="targetPoint" />
            <mxPoint x="120" y="280" as="sourcePoint" />
            <Array as="points">
              <mxPoint x="120" y="310" />
            </Array>
          </mxGeometry>
        </mxCell>
        <mxCell id="w6lKKFBIhaXtklg_7PCL-246" style="edgeStyle=orthogonalEdgeStyle;rounded=0;orthogonalLoop=1;jettySize=auto;html=1;endArrow=oval;endFill=0;" parent="1" edge="1">
          <mxGeometry relative="1" as="geometry">
            <mxPoint x="40" y="340" as="targetPoint" />
            <mxPoint x="120" y="310" as="sourcePoint" />
            <Array as="points">
              <mxPoint x="120" y="340" />
            </Array>
          </mxGeometry>
        </mxCell>
        <mxCell id="w6lKKFBIhaXtklg_7PCL-247" style="edgeStyle=orthogonalEdgeStyle;rounded=0;orthogonalLoop=1;jettySize=auto;html=1;endArrow=oval;endFill=0;" parent="1" edge="1">
          <mxGeometry relative="1" as="geometry">
            <mxPoint x="40" y="370" as="targetPoint" />
            <mxPoint x="120" y="340" as="sourcePoint" />
            <Array as="points">
              <mxPoint x="120" y="370" />
            </Array>
          </mxGeometry>
        </mxCell>
        <mxCell id="w6lKKFBIhaXtklg_7PCL-248" style="edgeStyle=orthogonalEdgeStyle;rounded=0;orthogonalLoop=1;jettySize=auto;html=1;endArrow=oval;endFill=0;" parent="1" edge="1">
          <mxGeometry relative="1" as="geometry">
            <mxPoint x="40" y="400" as="targetPoint" />
            <mxPoint x="120" y="370" as="sourcePoint" />
            <Array as="points">
              <mxPoint x="120" y="400" />
            </Array>
          </mxGeometry>
        </mxCell>
        <mxCell id="w6lKKFBIhaXtklg_7PCL-249" style="edgeStyle=orthogonalEdgeStyle;rounded=0;orthogonalLoop=1;jettySize=auto;html=1;endArrow=oval;endFill=0;" parent="1" edge="1">
          <mxGeometry relative="1" as="geometry">
            <mxPoint x="40" y="430" as="targetPoint" />
            <mxPoint x="120" y="400" as="sourcePoint" />
            <Array as="points">
              <mxPoint x="120" y="430" />
            </Array>
          </mxGeometry>
        </mxCell>
        <mxCell id="w6lKKFBIhaXtklg_7PCL-250" style="edgeStyle=orthogonalEdgeStyle;rounded=0;orthogonalLoop=1;jettySize=auto;html=1;endArrow=oval;endFill=0;" parent="1" edge="1">
          <mxGeometry relative="1" as="geometry">
            <mxPoint x="40" y="460" as="targetPoint" />
            <mxPoint x="120" y="430" as="sourcePoint" />
            <Array as="points">
              <mxPoint x="120" y="460" />
            </Array>
          </mxGeometry>
        </mxCell>
        <mxCell id="w6lKKFBIhaXtklg_7PCL-251" value="id" style="text;html=1;align=right;verticalAlign=middle;resizable=0;points=[];autosize=1;strokeColor=none;fillColor=none;" parent="1" vertex="1">
          <mxGeometry x="4" y="234" width="30" height="30" as="geometry" />
        </mxCell>
        <mxCell id="w6lKKFBIhaXtklg_7PCL-252" value="nome" style="text;html=1;align=right;verticalAlign=middle;resizable=0;points=[];autosize=1;strokeColor=none;fillColor=none;" parent="1" vertex="1">
          <mxGeometry x="-25" y="265" width="60" height="30" as="geometry" />
        </mxCell>
        <mxCell id="w6lKKFBIhaXtklg_7PCL-253" value="dataNascimento" style="text;html=1;align=right;verticalAlign=middle;resizable=0;points=[];autosize=1;strokeColor=none;fillColor=none;" parent="1" vertex="1">
          <mxGeometry x="-76" y="443" width="110" height="30" as="geometry" />
        </mxCell>
        <mxCell id="w6lKKFBIhaXtklg_7PCL-254" value="senha" style="text;html=1;align=right;verticalAlign=middle;resizable=0;points=[];autosize=1;strokeColor=none;fillColor=none;" parent="1" vertex="1">
          <mxGeometry x="-25" y="323" width="60" height="30" as="geometry" />
        </mxCell>
        <mxCell id="w6lKKFBIhaXtklg_7PCL-255" value="email" style="text;html=1;align=right;verticalAlign=middle;resizable=0;points=[];autosize=1;strokeColor=none;fillColor=none;" parent="1" vertex="1">
          <mxGeometry x="-15" y="293" width="50" height="30" as="geometry" />
        </mxCell>
        <mxCell id="w6lKKFBIhaXtklg_7PCL-256" value="endereco" style="text;html=1;align=right;verticalAlign=middle;resizable=0;points=[];autosize=1;strokeColor=none;fillColor=none;" parent="1" vertex="1">
          <mxGeometry x="-46" y="353" width="80" height="30" as="geometry" />
        </mxCell>
        <mxCell id="w6lKKFBIhaXtklg_7PCL-257" value="telefone" style="text;html=1;align=right;verticalAlign=middle;resizable=0;points=[];autosize=1;strokeColor=none;fillColor=none;" parent="1" vertex="1">
          <mxGeometry x="-36" y="383" width="70" height="30" as="geometry" />
        </mxCell>
        <mxCell id="w6lKKFBIhaXtklg_7PCL-258" value="dataAdmissao" style="text;html=1;align=right;verticalAlign=middle;resizable=0;points=[];autosize=1;strokeColor=none;fillColor=none;" parent="1" vertex="1">
          <mxGeometry x="-66" y="413" width="100" height="30" as="geometry" />
        </mxCell>
        <mxCell id="w6lKKFBIhaXtklg_7PCL-272" value="&lt;div&gt;id&lt;br&gt;&lt;/div&gt;" style="text;html=1;align=right;verticalAlign=middle;resizable=0;points=[];autosize=1;strokeColor=none;fillColor=none;" parent="1" vertex="1">
          <mxGeometry x="86" y="514" width="30" height="30" as="geometry" />
        </mxCell>
        <mxCell id="w6lKKFBIhaXtklg_7PCL-273" value="descricao" style="text;html=1;align=right;verticalAlign=middle;resizable=0;points=[];autosize=1;strokeColor=none;fillColor=none;" parent="1" vertex="1">
          <mxGeometry x="36" y="533" width="80" height="30" as="geometry" />
        </mxCell>
        <mxCell id="w6lKKFBIhaXtklg_7PCL-274" value="sigla" style="text;html=1;align=right;verticalAlign=middle;resizable=0;points=[];autosize=1;strokeColor=none;fillColor=none;" parent="1" vertex="1">
          <mxGeometry x="66" y="552" width="50" height="30" as="geometry" />
        </mxCell>
        <mxCell id="w6lKKFBIhaXtklg_7PCL-277" value="id" style="text;html=1;align=right;verticalAlign=middle;resizable=0;points=[];autosize=1;strokeColor=none;fillColor=none;" parent="1" vertex="1">
          <mxGeometry x="256" y="413" width="30" height="30" as="geometry" />
        </mxCell>
        <mxCell id="w6lKKFBIhaXtklg_7PCL-278" value="descricao" style="text;html=1;align=right;verticalAlign=middle;resizable=0;points=[];autosize=1;strokeColor=none;fillColor=none;" parent="1" vertex="1">
          <mxGeometry x="206" y="433" width="80" height="30" as="geometry" />
        </mxCell>
        <mxCell id="vipsW1VBh6MyxsaxampE-2" value="pedidoProduto&lt;br&gt;Contem" style="shape=associativeEntity;whiteSpace=wrap;html=1;align=center;gradientColor=#99CCFF;fillColor=#21FF37;gradientDirection=east;strokeWidth=1;strokeColor=#000099;" vertex="1" parent="1">
          <mxGeometry x="670" y="10" width="140" height="60" as="geometry" />
        </mxCell>
        <mxCell id="vipsW1VBh6MyxsaxampE-5" style="edgeStyle=orthogonalEdgeStyle;rounded=0;orthogonalLoop=1;jettySize=auto;html=1;endArrow=oval;endFill=1;exitX=0.25;exitY=0;exitDx=0;exitDy=0;" edge="1" parent="1" source="vipsW1VBh6MyxsaxampE-2">
          <mxGeometry relative="1" as="geometry">
            <mxPoint x="730" y="-100" as="targetPoint" />
            <mxPoint x="703.0000000000001" y="-1.2700000000001914" as="sourcePoint" />
            <Array as="points">
              <mxPoint x="705" y="-100" />
              <mxPoint x="730" y="-100" />
            </Array>
          </mxGeometry>
        </mxCell>
        <mxCell id="vipsW1VBh6MyxsaxampE-6" style="edgeStyle=orthogonalEdgeStyle;rounded=0;orthogonalLoop=1;jettySize=auto;html=1;endArrow=oval;endFill=0;exitX=0.25;exitY=0;exitDx=0;exitDy=0;" edge="1" parent="1" source="vipsW1VBh6MyxsaxampE-2">
          <mxGeometry relative="1" as="geometry">
            <mxPoint x="730" y="-80" as="targetPoint" />
            <mxPoint x="715" y="20" as="sourcePoint" />
            <Array as="points">
              <mxPoint x="705" y="-80" />
              <mxPoint x="730" y="-80" />
            </Array>
          </mxGeometry>
        </mxCell>
        <mxCell id="vipsW1VBh6MyxsaxampE-7" style="edgeStyle=orthogonalEdgeStyle;rounded=0;orthogonalLoop=1;jettySize=auto;html=1;endArrow=oval;endFill=0;exitX=0.25;exitY=0;exitDx=0;exitDy=0;" edge="1" parent="1" source="vipsW1VBh6MyxsaxampE-2">
          <mxGeometry relative="1" as="geometry">
            <mxPoint x="730" y="-60" as="targetPoint" />
            <mxPoint x="715" y="20" as="sourcePoint" />
            <Array as="points">
              <mxPoint x="705" y="-60" />
            </Array>
          </mxGeometry>
        </mxCell>
        <mxCell id="vipsW1VBh6MyxsaxampE-8" style="edgeStyle=orthogonalEdgeStyle;rounded=0;orthogonalLoop=1;jettySize=auto;html=1;endArrow=oval;endFill=0;exitX=0.25;exitY=0;exitDx=0;exitDy=0;" edge="1" parent="1" source="vipsW1VBh6MyxsaxampE-2">
          <mxGeometry relative="1" as="geometry">
            <mxPoint x="730" y="-40" as="targetPoint" />
            <mxPoint x="725" y="30" as="sourcePoint" />
            <Array as="points">
              <mxPoint x="705" y="-40" />
              <mxPoint x="730" y="-40" />
            </Array>
          </mxGeometry>
        </mxCell>
        <mxCell id="vipsW1VBh6MyxsaxampE-9" style="edgeStyle=orthogonalEdgeStyle;rounded=0;orthogonalLoop=1;jettySize=auto;html=1;endArrow=oval;endFill=0;exitX=0.25;exitY=0;exitDx=0;exitDy=0;" edge="1" parent="1" source="vipsW1VBh6MyxsaxampE-2">
          <mxGeometry relative="1" as="geometry">
            <mxPoint x="730" y="-20" as="targetPoint" />
            <mxPoint x="735" y="40" as="sourcePoint" />
            <Array as="points">
              <mxPoint x="705" y="-20" />
              <mxPoint x="730" y="-20" />
            </Array>
          </mxGeometry>
        </mxCell>
        <mxCell id="vipsW1VBh6MyxsaxampE-10" style="edgeStyle=orthogonalEdgeStyle;rounded=0;orthogonalLoop=1;jettySize=auto;html=1;endArrow=oval;endFill=0;exitX=0.25;exitY=0;exitDx=0;exitDy=0;" edge="1" parent="1" source="vipsW1VBh6MyxsaxampE-2">
          <mxGeometry relative="1" as="geometry">
            <mxPoint x="730" as="targetPoint" />
            <mxPoint x="745" y="50" as="sourcePoint" />
            <Array as="points">
              <mxPoint x="705" />
              <mxPoint x="730" />
            </Array>
          </mxGeometry>
        </mxCell>
        <mxCell id="vipsW1VBh6MyxsaxampE-12" value="id" style="text;html=1;align=left;verticalAlign=middle;resizable=0;points=[];autosize=1;strokeColor=none;fillColor=none;" vertex="1" parent="1">
          <mxGeometry x="734" y="-116" width="30" height="30" as="geometry" />
        </mxCell>
        <mxCell id="vipsW1VBh6MyxsaxampE-13" value="pedidoId" style="text;html=1;align=left;verticalAlign=middle;resizable=0;points=[];autosize=1;strokeColor=none;fillColor=none;" vertex="1" parent="1">
          <mxGeometry x="734" y="-97" width="70" height="30" as="geometry" />
        </mxCell>
        <mxCell id="vipsW1VBh6MyxsaxampE-14" value="produtoId" style="text;html=1;align=left;verticalAlign=middle;resizable=0;points=[];autosize=1;strokeColor=none;fillColor=none;" vertex="1" parent="1">
          <mxGeometry x="734" y="-77" width="80" height="30" as="geometry" />
        </mxCell>
        <mxCell id="vipsW1VBh6MyxsaxampE-15" value="quantidadeProduto" style="text;html=1;align=left;verticalAlign=middle;resizable=0;points=[];autosize=1;strokeColor=none;fillColor=none;" vertex="1" parent="1">
          <mxGeometry x="734" y="-57" width="130" height="30" as="geometry" />
        </mxCell>
        <mxCell id="vipsW1VBh6MyxsaxampE-16" value="&lt;div align=&quot;left&quot;&gt;desconto&lt;/div&gt;" style="text;html=1;align=left;verticalAlign=middle;resizable=0;points=[];autosize=1;strokeColor=none;fillColor=none;" vertex="1" parent="1">
          <mxGeometry x="734" y="-37" width="70" height="30" as="geometry" />
        </mxCell>
        <mxCell id="vipsW1VBh6MyxsaxampE-17" value="valorUnitario" style="text;html=1;align=left;verticalAlign=middle;resizable=0;points=[];autosize=1;strokeColor=none;fillColor=none;" vertex="1" parent="1">
          <mxGeometry x="734" y="-17" width="90" height="30" as="geometry" />
        </mxCell>
      </root>
    </mxGraphModel>
  </diagram>
</mxfile>
